<?xml version="1.0" ?><!DOCTYPE svg  PUBLIC '-//W3C//DTD SVG 1.1//EN'  'http://www.w3.org/Graphics/SVG/1.1/DTD/svg11.dtd'><svg height="60px" id="Layer_1" style="enable-background:new 0 0 80 80;" version="1.1" viewBox="0 0 80 80" width="80px" xml:space="preserve" xmlns="http://www.w3.org/2000/svg" xmlns:xlink="http://www.w3.org/1999/xlink"><style type="text/css">
	.st0{fill:#1C2B36;}
</style><path class="st0" d="M40.1,13C40,13,40,13,40.1,13c-0.1,0-0.1,0-0.1,0c-2.8,0-5.1-0.2-6.1,0.2c1.7,3.2,4.7,7.1,6.2,8.8  c1.5-1.8,4.5-5.6,6.2-8.8C45.1,12.7,42.9,13,40.1,13z M68.5,43c-0.4-1.9-1.4-4.3-2.7-10.1C63,20,61.7,17.2,57.6,15.8  c-0.5-0.2-1.2-0.4-2-0.7l0,0c0,0,0,0,0,0c-0.4-0.2-0.9-0.3-1.4-0.5c-5.3-2.4-5.7-6-7.8-6.4C45.1,8,42.7,8.1,40,8.1  c-2.7,0-5.1-0.1-6.4,0.1c-2.2,0.4-2.6,4-7.8,6.4c-0.5,0.2-1,0.3-1.4,0.5c0,0,0,0,0,0c0,0,0,0,0,0c-0.8,0.3-1.5,0.5-2,0.7  c-4.1,1.4-5.4,4.2-8.2,17.1c-1.3,5.8-2.2,8.2-2.7,10.1c-0.4,1.9-0.3,17.8,0.2,19.6c0.4,1.3,1.2,1.5,1.2,2.1l0.4,3.8h5.9l0.4-4.5  c2-2,0.5-11.1,1-18.5c1.2-4,2.7-8,3.2-10.5c1.6,10-0.9,30-2,33.1c1.4,2.4,9.3,3.7,16.7,3.8l1-3.4V21.9c-1.7-1.4-6.1-4.9-6.1-4.9  l-10,0c0,0,7.3-2.8,9-7.2c0,0.6,0.2,1.1,0.6,2c0-0.3,0-0.7,0-0.9c0.3-1.4,3-1,6.8-1c0,0,0,0,0.1,0c0,0,0,0,0.1,0  c3.8,0,6.6-0.4,6.8,1c0.1,0.3,0.1,0.6,0,0.9c0.4-0.9,0.6-1.4,0.6-2c1.7,4.3,9,7.2,9,7.2l-10.2,0c0,0-3.7,3.5-5.9,4.9v46.6l1,3.4  c7.4-0.1,15.2-1.4,16.6-3.8c-1.1-3.1-3.6-23.1-2-33.1c0.5,2.5,2,6.5,3.2,10.5c0.5,7.4-1,16.4,1,18.5l0.4,4.5h5.9l0.4-3.8  c0-0.6,0.9-0.8,1.2-2.1C68.8,60.8,68.9,44.9,68.5,43z M17.7,67.4c-0.4,0-0.8-0.4-0.8-0.8c0-0.4,0.4-0.8,0.8-0.8  c0.4,0,0.8,0.4,0.8,0.8C18.5,67,18.2,67.4,17.7,67.4z M38.5,22.8c0.6,0,1.1,0.5,1.1,1.1c0,0.6-0.5,1.1-1.1,1.1  c-0.6,0-1.1-0.5-1.1-1.1C37.4,23.3,37.9,22.8,38.5,22.8z M38,54.8c0.6,0,1.1,0.5,1.1,1.1c0,0.6-0.5,1.1-1.1,1.1  c-0.6,0-1.1-0.5-1.1-1.1C36.9,55.3,37.4,54.8,38,54.8z M38,44.2c0.6,0,1.1,0.5,1.1,1.1c0,0.6-0.5,1.1-1.1,1.1  c-0.6,0-1.1-0.5-1.1-1.1C36.9,44.7,37.4,44.2,38,44.2z M38,33.6c0.6,0,1.1,0.5,1.1,1.1c0,0.6-0.5,1.1-1.1,1.1  c-0.6,0-1.1-0.5-1.1-1.1C36.9,34.1,37.4,33.6,38,33.6z M38,65.4c0.6,0,1.1,0.5,1.1,1.1c0,0.6-0.5,1.1-1.1,1.1  c-0.6,0-1.1-0.5-1.1-1.1C36.9,65.9,37.4,65.4,38,65.4z M62.3,67.4c-0.5,0-0.8-0.4-0.8-0.8c0-0.5,0.4-0.8,0.8-0.8  c0.5,0,0.8,0.4,0.8,0.8C63.1,67,62.8,67.4,62.3,67.4z"/></svg>